<svg width="3000" height="3000" viewBox="0 0 3000 3000" fill="none" xmlns="http://www.w3.org/2000/svg">
<circle cx="1500.5" cy="1500.5" r="1480.5" fill="#D9D9D9" stroke="#414141" stroke-width="40"/>
<circle cx="1029" cy="769" r="225" fill="#414141"/>
<rect x="1295.83" y="562" width="417.262" height="417.262" rx="45" fill="#020079"/>
<rect x="1803.8" y="562" width="417.262" height="417.262" rx="45" fill="#020079"/>
<rect x="1803.8" y="1541.66" width="417.262" height="417.262" rx="45" fill="#020079"/>
<rect x="806" y="1051.83" width="417.262" height="417.262" rx="45" fill="#020079"/>
<rect x="1295.83" y="1051.83" width="417.262" height="417.262" rx="45" fill="#020079"/>
<rect x="806" y="1541.66" width="417.262" height="417.262" rx="45" fill="#020079"/>
<rect x="1295.83" y="1541.66" width="417.262" height="417.262" rx="45" fill="#020079"/>
<rect x="806" y="2049.63" width="417.262" height="417.262" rx="45" fill="#020079"/>
<rect x="1295.83" y="2049.63" width="417.262" height="417.262" rx="45" fill="#020079"/>
<circle cx="1018" cy="757" r="225" fill="#020079"/>
<rect x="1282.83" y="548" width="417.262" height="417.262" rx="45" fill="#414141"/>
<rect x="1790.8" y="548" width="417.262" height="417.262" rx="45" fill="#414141"/>
<rect x="1790.8" y="1527.66" width="417.262" height="417.262" rx="45" fill="#414141"/>
<rect x="793" y="1037.83" width="417.262" height="417.262" rx="45" fill="#414141"/>
<rect x="1282.83" y="1037.83" width="417.262" height="417.262" rx="45" fill="#414141"/>
<rect x="793" y="1527.66" width="417.262" height="417.262" rx="45" fill="#414141"/>
<rect x="1282.83" y="1527.66" width="417.262" height="417.262" rx="45" fill="#414141"/>
<rect x="793" y="2035.63" width="417.262" height="417.262" rx="45" fill="#414141"/>
<rect x="1282.83" y="2035.63" width="417.262" height="417.262" rx="45" fill="#414141"/>
<path d="M1011.69 879.835C1030.81 879.835 1046.31 895.094 1046.31 913.917C1046.31 932.741 1030.81 948 1011.69 948C992.567 948 977.066 932.741 977.066 913.917C977.066 895.094 992.567 879.835 1011.69 879.835Z" fill="#D9D9D9"/>
<path d="M1005.65 892.926V623.575H1018.03V892.926H1005.65Z" fill="#D9D9D9"/>
<path d="M1011.84 584L1035.21 623.838H988.476L1011.84 584Z" fill="#D9D9D9"/>
<path d="M1000.22 844.548C1003.89 847.618 1005.93 856.561 1006.49 860.649V831.532C994.517 820.673 969.271 797.705 964.074 792.709C958.877 787.714 956.966 780.897 956.66 778.113V742.977H942.75V769.988C942.75 771.342 942.964 776.067 943.82 784.132C944.676 792.198 952.737 801.236 956.66 804.747C969.653 816.735 996.555 841.478 1000.22 844.548Z" fill="#D9D9D9"/>
<path d="M1024.3 793.687C1020.63 796.757 1018.59 805.7 1018.03 809.788V780.671C1030 769.812 1055.25 746.844 1060.45 741.849C1065.65 736.853 1067.56 730.036 1067.86 727.253V692.117H1081.77V719.127C1081.77 720.481 1081.56 725.206 1080.7 733.272C1079.85 741.337 1071.79 750.376 1067.86 753.887C1054.87 765.875 1027.97 790.618 1024.3 793.687Z" fill="#D9D9D9"/>
<path d="M1052.73 694.449V653.821H1094V694.449H1052.73Z" fill="#D9D9D9"/>
<path d="M949.782 703.477C961.812 703.477 971.564 713.078 971.564 724.92C971.564 736.763 961.812 746.363 949.782 746.363C937.752 746.363 928 736.763 928 724.92C928 713.078 937.752 703.477 949.782 703.477Z" fill="#D9D9D9"/>
</svg>
